<svg height="512pt" viewBox="0 -24 512.00003 512" width="512pt" xmlns="http://www.w3.org/2000/svg" xmlns:xlink="http://www.w3.org/1999/xlink"><linearGradient id="a"><stop offset="0" stop-color="#8c6239"/><stop offset="1" stop-color="#42210b"/></linearGradient><linearGradient id="b" gradientUnits="userSpaceOnUse" x1="152.0262174806" x2="219.1685208406" xlink:href="#a" y1="160.506069566" y2="420.6821939094"/><linearGradient id="c" gradientUnits="userSpaceOnUse" x1="162.9638472784" x2="217.0366924736" xlink:href="#a" y1="112.8817165534" y2="287.4920629538"/><linearGradient id="d"><stop offset="0" stop-color="#42210b" stop-opacity="0"/><stop offset="1" stop-color="#42210b"/></linearGradient><linearGradient id="e" gradientUnits="userSpaceOnUse" x1="210.2030958118" x2="144.3018408282" xlink:href="#d" y1="223.5640166612" y2="14.5948413796"/><linearGradient id="f" gradientUnits="userSpaceOnUse" x1="159.4468073358" x2="203.0660135294" xlink:href="#a" y1="66.0764635006" y2="235.1008875008"/><linearGradient id="g" gradientUnits="userSpaceOnUse" x1="121.2809054462" x2="72.089630976" xlink:href="#d" y1="61.7393196762" y2="32.449794934"/><linearGradient id="h"><stop offset="0" stop-color="#f8ebe1"/><stop offset="1" stop-color="#fbd1a2"/></linearGradient><linearGradient id="i" gradientUnits="userSpaceOnUse" x1="112.6382413404" x2="135.6929085016" xlink:href="#h" y1="18.3206970982" y2="92.767938499"/><linearGradient id="j" gradientUnits="userSpaceOnUse" x1="149.6649929366" x2="102.914554025" xlink:href="#d" y1="74.232024652" y2="38.1834946526"/><linearGradient id="k" gradientUnits="userSpaceOnUse" x1="132.5507330338" x2="159.6177752524" xlink:href="#h" y1="22.8677610128" y2="110.2717201378"/><linearGradient id="l" gradientUnits="userSpaceOnUse" x1="189.0297784786" x2="130.4508293864" xlink:href="#d" y1="89.5763700688" y2="48.6461689522"/><linearGradient id="m" gradientUnits="userSpaceOnUse" x1="166.4153311144" x2="192.4735321152" xlink:href="#h" y1="32.8370076494" y2="116.9830391"/><linearGradient id="n" gradientUnits="userSpaceOnUse" x1="232.3892700508" x2="168.1778165776" xlink:href="#d" y1="106.7412276404" y2="62.431423503"/><linearGradient id="o" gradientUnits="userSpaceOnUse" x1="201.9274655892" x2="230.1088612278" xlink:href="#h" y1="43.9689967464" y2="134.9714138882"/><linearGradient id="p" gradientUnits="userSpaceOnUse" x1="269.460194215" x2="187.975359202" xlink:href="#d" y1="121.6458552212" y2="82.593189029"/><linearGradient id="q" gradientUnits="userSpaceOnUse" x1="230.101432205" x2="255.810870703" xlink:href="#h" y1="58.8647898136" y2="141.8849227412"/><linearGradient id="r" gradientUnits="userSpaceOnUse" x1="325.041331823" x2="392.1835347908" xlink:href="#a" y1="279.3489504352" y2="539.5251751708"/><linearGradient id="s" gradientUnits="userSpaceOnUse" x1="335.9789616208" x2="390.051806816" xlink:href="#a" y1="231.7246978148" y2="406.334943823"/><linearGradient id="t" gradientUnits="userSpaceOnUse" x1="383.2182101542" x2="317.3168547784" xlink:href="#d" y1="342.4068975304" y2="133.437822641"/><linearGradient id="u" gradientUnits="userSpaceOnUse" x1="332.4619216782" x2="376.0810274796" xlink:href="#a" y1="184.919444762" y2="353.9438687622"/><linearGradient id="v" gradientUnits="userSpaceOnUse" x1="294.2959193964" x2="245.1046449262" xlink:href="#d" y1="180.5822005454" y2="151.2927761954"/><linearGradient id="w" gradientUnits="userSpaceOnUse" x1="285.6533556828" x2="308.7079224518" xlink:href="#h" y1="137.1636783596" y2="211.6109197604"/><linearGradient id="x" gradientUnits="userSpaceOnUse" x1="322.680107279" x2="275.9295679752" xlink:href="#d" y1="193.0750059134" y2="157.0263755218"/><linearGradient id="y" gradientUnits="userSpaceOnUse" x1="305.565746984" x2="332.6327892026" xlink:href="#h" y1="141.7107422742" y2="229.1147013992"/><linearGradient id="z" gradientUnits="userSpaceOnUse" x1="362.0447924288" x2="303.4658433366" xlink:href="#d" y1="208.419250938" y2="167.4891502136"/><linearGradient id="A" gradientUnits="userSpaceOnUse" x1="339.4304454568" x2="365.4885460654" xlink:href="#h" y1="151.6798885186" y2="235.8260203614"/><linearGradient id="B" gradientUnits="userSpaceOnUse" x1="405.4043843932" x2="341.1928305278" xlink:href="#d" y1="225.5841085096" y2="181.2744047644"/><linearGradient id="C" gradientUnits="userSpaceOnUse" x1="374.9425799316" x2="403.123875178" xlink:href="#h" y1="162.8119780078" y2="253.8143951496"/><linearGradient id="D" gradientUnits="userSpaceOnUse" x1="442.4752081652" x2="360.9904735444" xlink:href="#d" y1="240.4887360904" y2="201.4361702904"/><linearGradient id="E" gradientUnits="userSpaceOnUse" x1="403.1164461552" x2="428.8259850454" xlink:href="#h" y1="177.7076706828" y2="260.7279040026"/><linearGradient id="F" gradientUnits="userSpaceOnUse" x1="441.417977907" x2="334.3987883928" xlink:href="#a" y1="520.1009911382" y2="126.9461618124"/><linearGradient id="G" gradientUnits="userSpaceOnUse" x1="524.5993407078" x2="315.784167061" xlink:href="#h" y1="307.1912212222" y2="307.1912212222"/><linearGradient id="H"><stop offset="0" stop-color="#f8ebe1" stop-opacity="0"/><stop offset="1" stop-color="#fbd1a2"/></linearGradient><linearGradient id="I" gradientUnits="userSpaceOnUse" x1="396.331840887" x2="378.3075256912" xlink:href="#H" y1="351.022857311" y2="280.0521977962"/><linearGradient id="J" gradientUnits="userSpaceOnUse" x1="412.9309884116" x2="383.6415640616" xlink:href="#H" y1="415.832547904" y2="301.4909521062"/><linearGradient id="K" gradientUnits="userSpaceOnUse" x1="371.0150362832" x2="447.6183005712" xlink:href="#H" y1="315.5543934432" y2="307.1054862834"/><radialGradient id="L" cx="458.6980857242" cy="297.8388846546" gradientUnits="userSpaceOnUse" r="147.9217827758"><stop offset="0" stop-color="#faa4bd"/><stop offset=".231" stop-color="#f8a1bc"/><stop offset=".4055" stop-color="#f097b8"/><stop offset=".5616" stop-color="#e287b2"/><stop offset=".7067" stop-color="#cf70aa"/><stop offset=".8444" stop-color="#b7539f"/><stop offset=".9747" stop-color="#992f92"/><stop offset="1" stop-color="#93278f"/></radialGradient><linearGradient id="M"><stop offset="0" stop-color="#be3f45" stop-opacity="0"/><stop offset="1" stop-color="#be3f45"/></linearGradient><linearGradient id="N" gradientUnits="userSpaceOnUse" x1="383.7248895876" x2="179.8251188372" xlink:href="#M" y1="388.3417502092" y2="333.1423037456"/><linearGradient id="O" gradientUnits="userSpaceOnUse" x1="355.6104555464" x2="237.7015233138" xlink:href="#M" y1="283.7787562602" y2="149.3475769282"/><path d="m319.472656 128.445312c-5.699218-38.59375-70.667968-69.027343-149.980468-69.027343s-144.28125 30.433593-149.980469 69.027343c-.144531.707032-18.289063 104.804688-18.398438 105.507813-.726562 3.773437-1.113281 7.609375-1.113281 11.496094 0 55.492187 75.882812 100.476562 169.492188 100.476562 93.609374 0 169.492187-44.984375 169.492187-100.476562 0-3.886719-.386719-7.722657-1.113281-11.496094zm0 0" fill="url(#b)"/><path d="m319.882812 133.964844c0-41.171875-67.332031-74.546875-150.390624-74.546875-83.058594 0-150.390626 33.375-150.390626 74.546875s67.332032 74.546875 150.390626 74.546875c83.058593 0 150.390624-33.375 150.390624-74.546875zm0 0" fill="url(#c)"/><path d="m164.996094.0664062c-.734375.0195313-1.464844.0390628-2.195313.0664058-.445312.019532-.886719.042969-1.332031.0625-.660156.035157-1.320312.0625-1.980469.101563-.472656.027344-.941406.0625-1.414062.09375-.625.042969-1.253907.085937-1.878907.132813-.488281.039062-.972656.085937-1.457031.128906-.601562.054687-1.207031.105468-1.804687.164062-.5.050782-.992188.105469-1.488282.160156-.589843.0625-1.175781.125-1.757812.195313-.5.058594-.996094.125-1.496094.1875-.574218.074219-1.148437.148437-1.722656.226563-.5.070312-1 .148437-1.503906.222656-.5625.082031-1.121094.167968-1.679688.253906-.507812.082031-1.011718.167969-1.515625.253906-.550781.09375-1.097656.183594-1.644531.285156-.507812.089844-1.015625.183594-1.523438.28125-.535156.101563-1.074218.207032-1.609374.3125-.507813.101563-1.015626.207032-1.519532.316407-.527344.109375-1.054687.222656-1.582031.339843-.507813.113282-1.015625.226563-1.523437.34375-.515626.121094-1.03125.242188-1.546876.367188-.507812.121094-1.011718.25-1.519531.375-.507812.128906-1.015625.261719-1.519531.394531-.507812.132813-1.015625.269531-1.519531.40625-.492188.136719-.984375.273438-1.476563.414063-.511718.144531-1.023437.292968-1.53125.445312-.480468.140625-.957031.285156-1.429687.433594-.515625.15625-1.027344.3125-1.539063.476562-.464844.148438-.929687.300782-1.390625.453126-.515625.167968-1.03125.335937-1.542969.511718-.449218.152344-.894531.3125-1.34375.46875-.519531.183594-1.039062.363282-1.554687.550782-.429687.15625-.855469.316406-1.285156.480468-.523438.195313-1.050781.390625-1.574219.59375-.40625.15625-.808594.320313-1.214844.480469-.539062.214844-1.074218.425781-1.609375.644531-.375.152344-.742187.308594-1.113281.46875-.558594.230469-1.117188.464844-1.671875.707032-.328125.140624-.648437.289062-.972656.433593-.59375.261719-1.1875.523438-1.773438.792969-.238281.109375-.472656.226562-.710937.335938-.667969.3125-1.332032.621093-1.992188.941406-.03125.015625-.058594.027344-.085937.042968-3.449219 1.675782-6.792969 3.472657-10.023438 5.386719-.019531.007813-.035156.019531-.054687.03125-.714844.421875-1.421875.855469-2.128906 1.289063-.113282.070312-.226563.136718-.335938.207031-.664062.410156-1.316406.828125-1.964844 1.25-.152344.097656-.304687.195313-.457031.292969-.621094.40625-1.238281.820312-1.851563 1.234375-.171874.117187-.347656.234375-.523437.351562-.601563.410157-1.195313.828125-1.785156 1.246094-.175781.125-.355469.25-.53125.378906-.585938.417969-1.160157.839844-1.734375 1.265625-.179688.132813-.363282.265625-.542969.402344-.566406.425781-1.128906.859375-1.691406 1.292969-.171875.136719-.351563.273437-.523438.410156-.558593.441406-1.113281.882813-1.660156 1.332031-.167969.136719-.339844.273438-.507813.410156-.546874.453126-1.089843.910157-1.628906 1.367188-.164062.140625-.324218.277344-.484375.414062-.539062.46875-1.074219.9375-1.605469 1.410157-.152343.136719-.300781.269531-.449218.402343-.535156.484376-1.066406.972657-1.589844 1.464844-.136719.128906-.269531.253906-.40625.378906-.53125.503907-1.058594 1.011719-1.582031 1.523438-.117188.121094-.238281.238281-.355469.355469-.53125.523437-1.054688 1.054687-1.574219 1.585937-.101562.105469-.203125.210938-.304687.320313-.527344.546875-1.050782 1.101562-1.566406 1.660156-.082032.085937-.164063.179687-.25.269531-.527344.574219-1.050782 1.15625-1.566407 1.742188-.058593.066406-.117187.136718-.175781.203125-.535156.609375-1.066406 1.226562-1.585938 1.847656-.027343.035156-.058593.070313-.085937.105469-10.714844 12.84375-17.992187 27.664062-20.785156 43.621094 0 .003906 0 .011718-.003907.015624-.144531.835938-.277343 1.675782-.402343 2.519532v.015625c-.121094.84375-.230469 1.6875-.328125 2.535156v.023437c-.097656.847657-.179688 1.699219-.253906 2.554688-.191407 2.324219-.296876 4.667969-.296876 7.03125 0 20.492188 7.34375 36.082031 20.042969 47.691406l183.484375 183.480469c58.203125-15.90625 98.605469-50.796875 98.605469-91.285156 0-3.886719-.386719-7.722657-1.113281-11.496094l-18.398438-105.507813c-1.589844-10.765624-7.800781-20.898437-17.640625-29.910156-1.761719-21.296875-11.457031-40.867187-26.757812-56.859375-.457031-.476562-.917969-.949219-1.386719-1.421875-.246094-.25-.488281-.5-.734375-.746094-.710937-.703124-1.429687-1.398437-2.164063-2.085937-.113281-.109375-.234374-.21875-.351562-.328125-.632812-.589844-1.273438-1.175781-1.921875-1.753906-.257813-.230469-.519531-.457032-.78125-.683594-.527344-.464844-1.054687-.921875-1.589844-1.375-.28125-.238281-.566406-.476562-.847656-.710938-.550781-.457031-1.109375-.910156-1.667969-1.359374-.261718-.207032-.515625-.417969-.777344-.625-.753906-.59375-1.519531-1.183594-2.289062-1.765626-.066406-.046874-.128906-.097656-.191406-.144531-.847656-.636719-1.707032-1.257812-2.578125-1.878906-.230469-.164063-.464844-.324219-.695313-.484375-.644531-.453125-1.292968-.898438-1.945312-1.339844-.289063-.195312-.578125-.386718-.867188-.578125-.628906-.417969-1.265625-.828125-1.90625-1.238281-.277344-.175781-.554687-.355469-.835937-.53125-.753907-.472656-1.515625-.941406-2.285157-1.402344-.160156-.09375-.3125-.191406-.476562-.289062-.941406-.558594-1.894531-1.109375-2.859375-1.652344-.175781-.101562-.359375-.195312-.535156-.296875-.777344-.429687-1.554688-.855469-2.34375-1.273437-.296875-.160157-.59375-.3125-.890625-.46875-.695313-.363282-1.394532-.71875-2.097656-1.070313-.308594-.15625-.621094-.3125-.929688-.464844-.761719-.375-1.527344-.742187-2.300781-1.105469-.234375-.109374-.472657-.222656-.707031-.332031-1.027344-.476562-2.058594-.941406-3.097657-1.394531-.078125-.03125-.152343-.0625-.230469-.097656-.945312-.410156-1.898437-.808594-2.859374-1.199219-.304688-.125-.613282-.246094-.921876-.371094-.75-.300781-1.503906-.59375-2.261718-.886719-.34375-.128906-.683594-.257812-1.027344-.386718-.773438-.289063-1.550781-.570313-2.328125-.84375-.304687-.109375-.605469-.21875-.910156-.324219-2.160157-.75-4.351563-1.457031-6.570313-2.117187-.304687-.089844-.613281-.175782-.917968-.265626-.808594-.234374-1.621094-.464843-2.441407-.6875-.367187-.101562-.742187-.199218-1.113281-.300781-.785156-.207031-1.570312-.40625-2.363281-.605469-.359375-.089843-.722657-.179687-1.082031-.265624-.933594-.226563-1.871094-.441407-2.8125-.652344-.207032-.042969-.410157-.09375-.617188-.136719-1.152344-.253906-2.308594-.492187-3.476562-.71875-.28125-.054687-.5625-.101563-.84375-.15625-.882813-.167969-1.769532-.328125-2.65625-.480469-.398438-.066406-.792969-.132812-1.191407-.199218-.796875-.128907-1.601562-.257813-2.40625-.375-.40625-.0625-.8125-.121094-1.21875-.179688-.875-.125-1.753906-.238281-2.636719-.347656-.316406-.039063-.632812-.082032-.949218-.121094-1.195313-.140625-2.394532-.269531-3.601563-.386719-.214843-.019531-.429687-.035156-.644531-.054687-.992188-.09375-1.988281-.175782-2.988281-.25-.40625-.03125-.816407-.054688-1.222657-.082032-.824218-.054687-1.652343-.105468-2.480468-.148437-.4375-.023437-.875-.042969-1.316406-.066406-.847657-.035157-1.699219-.066407-2.550782-.089844-.394531-.0117188-.785156-.0234375-1.175781-.0351562-1.234375-.0273438-2.46875-.0429688-3.714844-.0429688-1.121093 0-2.238281.0117188-3.351562.0351562-.378907.0078126-.757813.0195313-1.140625.03125zm0 0" fill="url(#e)"/><path d="m302.132812 105.5625c0 58.300781-59.382812 76.957031-132.640624 76.957031-73.257813 0-132.640626-18.65625-132.640626-76.957031s59.386719-105.5625 132.640626-105.5625c73.253906 0 132.640624 47.261719 132.640624 105.5625zm0 0" fill="url(#f)"/><path d="m197.9375 2.464844c-2.242188-.214844-4.5-.371094-6.765625-.558594-1.132813-.0625-2.269531-.195312-3.40625-.191406l-3.40625.054687-3.421875.070313c-1.140625.03125-2.289062.042968-3.417969.207031l-6.824219.761719c-9.039062 1.488281-17.992187 3.925781-26.496093 7.542968-8.492188 3.632813-16.535157 8.265626-24.101563 13.542969-7.535156 5.335938-14.472656 11.433594-20.976562 17.917969-1.585938 1.660156-3.21875 3.277344-4.761719 4.972656l-4.574219 5.136719c-2.917968 3.527344-5.859375 7.042969-8.550781 10.738281-5.457031 7.332032-10.492187 14.960938-15 22.871094-4.574219 7.871094-8.625 16.019531-12.28125 24.320312-.535156 1.25-1.0625 2.5-1.582031 3.753907-.367188.878906.003906 1.636719.609375 2.039062l25.058593 25.058594c.613282.945313 2.191407 1.222656 2.917969-.0625.65625-1.171875 1.324219-2.339844 1.996094-3.503906 4.417969-7.792969 9.132813-15.390625 14.050781-22.820313 4.984375-7.390625 10.171875-14.613281 15.699219-21.542968 5.523437-6.929688 11.3125-13.640626 17.570313-19.851563 1.507812-1.613281 3.132812-3.097656 4.730468-4.613281l2.402344-2.273438c.789062-.765625 1.65625-1.441406 2.480469-2.171875 1.671875-1.425781 3.28125-2.933593 5.003906-4.296875l5.179687-4.074218c7.03125-5.265626 14.476563-9.921876 22.269532-13.996094l5.972656-2.785156c.5-.226563.992188-.484376 1.5-.683594l1.542969-.585938 3.074219-1.199218 3.019531-1.195313c.039062-.015625.078125-.027344.121093-.042969l3.09375-.964844 3.167969-.976562c1.0625-.3125 2.109375-.691406 3.195313-.902344l6.480468-1.53125c1.082032-.292968 2.183594-.4375 3.28125-.597656l3.304688-.523438 3.320312-.542968c1.109376-.171875 2.226563-.199219 3.34375-.308594 2.234376-.210938 4.480469-.390625 6.738282-.632812zm0 0" fill="url(#g)"/><path d="m55.394531 115.082031c-1.035156 1.84375-3.835937.480469-3.023437-1.476562.519531-1.253907 1.046875-2.503907 1.582031-3.753907 3.65625-8.300781 7.707031-16.449218 12.28125-24.320312 4.507813-7.910156 9.542969-15.539062 15-22.871094 2.691406-3.695312 5.632813-7.210937 8.550781-10.738281l4.574219-5.136719c1.542969-1.695312 3.175781-3.3125 4.761719-4.972656 6.503906-6.484375 13.441406-12.582031 20.976562-17.917969 7.566406-5.277343 15.609375-9.910156 24.101563-13.542969 8.503906-3.617187 17.457031-6.054687 26.496093-7.542968l6.824219-.761719c1.128907-.164063 2.277344-.175781 3.417969-.207031l3.421875-.070313 3.40625-.054687c1.136719-.003906 2.273437.128906 3.40625.191406 2.265625.1875 4.523437.34375 6.765625.558594-2.257812.242187-4.503906.421875-6.738281.632812-1.117188.113282-2.234375.136719-3.34375.308594l-3.320313.542969-3.304687.523437c-1.101563.160156-2.199219.304688-3.28125.597656l-6.480469 1.53125c-1.085938.214844-2.132812.589844-3.195312.902344l-3.167969.976563-3.09375.964843c-.042969.011719-.082031.027344-.121094.042969l-3.019531 1.195313-3.074219 1.199218-1.542969.582032c-.507812.203125-1 .460937-1.5.683594l-5.972656 2.789062c-7.792969 4.070312-15.238281 8.726562-22.269531 13.992188l-5.179688 4.078124c-1.71875 1.363282-3.332031 2.867188-5.003906 4.292969-.820313.734375-1.6875 1.410157-2.480469 2.175781l-2.398437 2.269532c-1.597657 1.519531-3.222657 3.003906-4.730469 4.617187-6.261719 6.210938-12.050781 12.917969-17.574219 19.851563-5.527343 6.929687-10.714843 14.152344-15.699219 21.542968-4.917968 7.429688-9.636718 15.027344-14.050781 22.820313-.671875 1.164063-1.339843 2.332031-2 3.503906zm0 0" fill="url(#i)"/><path d="m210.890625 5.9375c-4.40625-.21875-8.847656-.117188-13.28125.316406-4.429687.464844-8.828125 1.28125-13.191406 2.332032-4.332031 1.152343-8.597657 2.597656-12.78125 4.277343-4.179688 1.691407-8.183594 3.78125-12.113281 5.996094-15.699219 9.003906-28.941407 21.777344-39.878907 35.925781-10.925781 14.21875-19.773437 29.851563-26.820312 46.144532-3.570313 8.132812-6.632813 16.464843-9.328125 24.890624-.390625 1.265626-.773438 2.539063-1.148438 3.808594-.253906.859375.128906 1.542969.710938 1.898438l29.269531 29.265625c.613281 1.058593 2.40625 1.289062 3.035156-.160157.523438-1.203124 1.050781-2.40625 1.585938-3.601562 3.507812-8.011719 7.296875-15.875 11.265625-23.617188 8.023437-15.433593 17.003906-30.316406 27.523437-43.957031 10.519531-13.605469 22.664063-25.949219 36.878907-35.511719 7.117187-4.746093 14.742187-8.761718 22.816406-11.8125 4.03125-1.542968 8.183594-2.78125 12.402344-3.875 4.230468-1.042968 8.539062-1.804687 12.910156-2.464843zm0 0" fill="url(#j)"/><path d="m85.511719 130.777344c-.839844 1.9375-3.761719.875-3.164063-1.148438.375-1.269531.757813-2.539062 1.148438-3.808594 2.695312-8.429687 5.757812-16.757812 9.328125-24.890624 7.046875-16.292969 15.894531-31.925782 26.824219-46.144532 10.9375-14.148437 24.175781-26.921875 39.875-35.925781 3.929687-2.214844 7.933593-4.304687 12.113281-5.996094 4.183593-1.683593 8.449219-3.125 12.78125-4.277343 4.363281-1.050782 8.765625-1.867188 13.191406-2.332032 4.433594-.433594 8.878906-.53125 13.285156-.316406-4.371093.660156-8.679687 1.425781-12.910156 2.46875-4.21875 1.089844-8.371094 2.332031-12.402344 3.875-8.074219 3.050781-15.699219 7.066406-22.816406 11.808594-14.214844 9.5625-26.359375 21.910156-36.878906 35.515625-10.523438 13.640625-19.5 28.523437-27.523438 43.957031-3.96875 7.742188-7.757812 15.605469-11.265625 23.617188-.535156 1.195312-1.0625 2.394531-1.585937 3.597656zm0 0" fill="url(#k)"/><path d="m246.941406 20.585938c-4.296875-1.113282-8.710937-1.839844-13.191406-2.1875-4.480469-.324219-9.003906-.148438-13.511719.332031-9.019531 1.042969-17.84375 3.886719-26.023437 7.929687-4.089844 2.027344-8.023438 4.363282-11.773438 6.945313-3.777344 2.558593-7.347656 5.394531-10.761718 8.386719-3.410157 2.996093-6.65625 6.171874-9.761719 9.460937-3.070313 3.320313-6.007813 6.753906-8.816407 10.277344-11.144531 14.183593-20.167968 29.8125-27.5 46.066406-3.714843 8.113281-6.949218 16.421875-9.839843 24.828125-.421875 1.265625-.835938 2.53125-1.242188 3.800781-.28125.875.109375 1.585938.714844 1.945313l29.597656 29.597656c.609375 1.03125 2.355469 1.28125 3.011719-.136719.554688-1.195312 1.113281-2.390625 1.675781-3.582031 3.699219-7.984375 7.652344-15.824219 11.761719-23.550781 8.3125-15.402344 17.472656-30.300781 28.191406-43.894531 10.710938-13.546876 23.105469-25.820313 37.847656-34.542969 3.6875-2.15625 7.546876-4.003907 11.503907-5.636719 3.953125-1.648438 8.058593-2.960938 12.261719-3.898438 4.195312-1 8.496093-1.632812 12.851562-1.957031 4.355469-.289062 8.757812-.246093 13.191406 0zm0 0" fill="url(#l)"/><path d="m117.65625 137.648438c-.886719 1.917968-3.785156.789062-3.136719-1.222657.40625-1.269531.820313-2.535156 1.238281-3.796875 2.894532-8.410156 6.128907-16.71875 9.839844-24.832031 7.335938-16.253906 16.355469-31.878906 27.503906-46.066406 2.808594-3.523438 5.742188-6.957031 8.816407-10.277344 3.105469-3.289063 6.347656-6.464844 9.761719-9.460937 3.414062-2.992188 6.984374-5.828126 10.757812-8.382813 3.753906-2.585937 7.6875-4.921875 11.777344-6.949219 8.179687-4.042968 17-6.886718 26.019531-7.929687 4.511719-.480469 9.035156-.65625 13.515625-.332031 4.480469.347656 8.894531 1.074218 13.191406 2.1875-4.4375-.246094-8.835937-.289063-13.191406 0-4.355469.328124-8.65625.957031-12.851562 1.957031-4.207032.9375-8.3125 2.246093-12.261719 3.894531-3.957031 1.640625-7.816407 3.484375-11.507813 5.640625-14.742187 8.722656-27.136718 20.996094-37.847656 34.542969-10.71875 13.59375-19.878906 28.492187-28.1875 43.894531-4.109375 7.726563-8.0625 15.566406-11.761719 23.550781-.5625 1.1875-1.125 2.382813-1.675781 3.582032zm0 0" fill="url(#m)"/><path d="m292.757812 66.785156c.039063-.007812.085938-.015625.128907-.023437-2.683594-5.394531-5.90625-10.566407-9.621094-15.480469l-19.710937-19.714844c-3.660157-.925781-7.550782-.828125-11.332032-.332031-3.804687.5-7.519531 1.582031-11.136718 2.929687-3.601563 1.402344-6.996094 3.25-10.328126 5.214844-3.257812 2.0625-6.367187 4.371094-9.296874 6.867188-5.90625 4.960937-11.082032 10.699218-15.761719 16.746094-4.636719 6.09375-8.667969 12.574218-12.417969 19.1875-7.265625 13.347656-12.949219 27.421874-17.375 41.796874-2.59375 8.347657-4.796875 16.796876-6.585938 25.324219-.179687.859375.234376 1.503907.828126 1.824219l30.15625 30.15625c2.925781-.25 5.820312-.539062 8.667968-.871094 2.425782-6.59375 4.882813-13.148437 7.46875-19.644531 5.519532-13.722656 11.476563-27.199219 18.480469-40.046875 1.84375-3.148438 3.546875-6.394531 5.542969-9.441406.976562-1.53125 1.871094-3.128906 2.914062-4.613282l3.066406-4.511718c4.210938-5.914063 8.804688-11.519532 13.886719-16.644532 5.109375-5.089843 10.773438-9.632812 17.113281-13.117187 3.15625-1.757813 6.496094-3.199219 9.976563-4.296875 1.738281-.574219 3.523437-.980469 5.335937-1.308594zm0 0" fill="url(#n)"/><path d="m263.554688 31.566406c-1.871094-.039062-3.71875.144532-5.53125.484375-1.8125.328125-3.597657.734375-5.335938 1.304688-3.480469 1.101562-6.820312 2.542969-9.976562 4.300781-6.339844 3.484375-12.003907 8.023438-17.113282 13.113281-5.082031 5.125-9.675781 10.734375-13.886718 16.648438l-3.066407 4.507812c-1.042969 1.484375-1.9375 3.082031-2.914062 4.617188-1.996094 3.042969-3.703125 6.289062-5.542969 9.4375-7.003906 12.847656-12.960938 26.328125-18.480469 40.050781-3.179687 7.988281-6.171875 16.070312-9.140625 24.203125-.722656 1.972656-3.675781 1.121094-3.246094-.9375 1.789063-8.527344 3.992188-16.976563 6.585938-25.320313 4.425781-14.375 10.109375-28.453124 17.375-41.800781 3.75-6.613281 7.78125-13.09375 12.417969-19.183593 4.679687-6.046876 9.855469-11.789063 15.761719-16.746094 2.929687-2.5 6.039062-4.804688 9.296874-6.867188 3.332032-1.96875 6.726563-3.816406 10.328126-5.214844 3.617187-1.351562 7.332031-2.429687 11.136718-2.933593 3.785156-.492188 7.671875-.589844 11.332032.335937zm0 0" fill="url(#o)"/><path d="m284.917969 53.527344c-.355469-.363282-.546875-.566406-.519531-.554688-.664063-.480468-1.320313-1-2.027344-1.4375-.734375-.390625-1.433594-.886718-2.222656-1.195312-.773438-.339844-1.5625-.671875-2.394532-.878906-.820312-.28125-1.671875-.421876-2.53125-.566407-3.464844-.574219-7.066406.070313-10.363281 1.238281-3.308594 1.203126-6.34375 2.980469-9.109375 5.03125-2.773438 2.046876-5.304688 4.355469-7.660156 6.796876-4.714844 4.886718-8.769532 10.273437-12.457032 15.839843-3.6875 5.570313-6.972656 11.355469-10.023437 17.238281-6.066406 11.785157-11.117187 24-15.433594 36.433594-2.46875 7.207032-4.730469 14.484375-6.65625 21.847656-.246093.941407.25 1.65625.933594 1.964844l22.371094 22.371094c14.964843-2.925781 28.371093-7.292969 39.578125-13.386719 3.359375-7.214843 6.800781-14.367187 10.429687-21.398437 1.46875-2.871094 2.972657-5.71875 4.542969-8.519532 1.535156-2.824218 3.144531-5.601562 4.796875-8.339843 3.289063-5.488281 6.832031-10.796875 10.769531-15.71875 1.632813-2.015625 3.347656-3.972657 5.171875-5.792969-.226562-18.519531-6.445312-35.902344-17.195312-50.972656zm0 0" fill="url(#p)"/><path d="m206.703125 154.441406c-.847656 1.902344-3.707031.894532-3.183594-1.121094 1.925781-7.363281 4.1875-14.640624 6.65625-21.847656 4.316407-12.433594 9.367188-24.648437 15.4375-36.433594 3.050781-5.882812 6.335938-11.667968 10.023438-17.238281 3.683593-5.566406 7.742187-10.953125 12.457031-15.839843 2.355469-2.441407 4.882812-4.75 7.660156-6.796876 2.761719-2.050781 5.800782-3.828124 9.105469-5.03125 3.296875-1.167968 6.902344-1.8125 10.363281-1.238281.863282.144531 1.710938.285157 2.53125.566407.832032.207031 1.621094.542968 2.398438.878906.785156.308594 1.488281.804687 2.21875 1.195312.707031.4375 1.363281.957032 2.027344 1.4375-3.015626-1.332031-6.210938-2.042968-9.292969-1.894531-3.085938.117187-6.007813 1.160156-8.671875 2.59375-5.347656 2.941406-9.753906 7.527344-13.703125 12.40625-3.941407 4.921875-7.484375 10.230469-10.773438 15.714844-1.652343 2.738281-3.257812 5.515625-4.792969 8.339843-1.570312 2.804688-3.078124 5.652344-4.546874 8.523438-5.910157 11.460938-11.363282 23.234375-16.699219 35.097656-3.09375 6.871094-6.140625 13.769532-9.214844 20.6875zm0 0" fill="url(#q)"/><path d="m492.488281 247.289062c-5.699219-38.59375-70.667969-69.027343-149.980469-69.027343-79.316406 0-144.285156 30.433593-149.980468 69.027343-.144532.707032-18.292969 104.804688-18.402344 105.507813-.726562 3.773437-1.109375 7.609375-1.109375 11.496094 0 55.488281 75.882813 100.472656 169.492187 100.472656 93.605469 0 169.492188-44.980469 169.492188-100.472656 0-3.886719-.386719-7.722657-1.113281-11.496094zm0 0" fill="url(#r)"/><path d="m492.898438 252.804688c0-41.167969-67.332032-74.542969-150.390626-74.542969-83.058593 0-150.390624 33.375-150.390624 74.542969 0 41.171874 67.332031 74.546874 150.390624 74.546874 83.058594 0 150.390626-33.375 150.390626-74.546874zm0 0" fill="url(#s)"/><path d="m338.011719 118.910156c-.734375.019532-1.464844.039063-2.195313.066406-.445312.015626-.886718.042969-1.332031.0625-.660156.03125-1.324219.0625-1.980469.101563-.472656.027344-.941406.0625-1.414062.09375-.628906.042969-1.253906.082031-1.882813.132813-.484375.039062-.96875.085937-1.453125.128906-.601562.054687-1.207031.105468-1.808594.164062-.496093.050782-.992187.105469-1.488281.160156-.585937.0625-1.171875.125-1.753906.195313-.5.058594-.996094.125-1.496094.1875-.574219.074219-1.148437.148437-1.722656.226563-.503906.070312-1.003906.144531-1.503906.21875-.5625.085937-1.121094.167968-1.683594.257812-.503906.082031-1.007813.167969-1.515625.253906-.546875.089844-1.097656.183594-1.644531.285156-.507813.089844-1.011719.183594-1.519531.28125-.535157.101563-1.074219.207032-1.609376.3125-.511718.101563-1.015624.207032-1.523437.316407-.527344.109375-1.050781.222656-1.578125.339843-.507812.113282-1.015625.226563-1.523438.34375-.515624.121094-1.03125.242188-1.546874.367188-.507813.121094-1.015626.246094-1.519532.375-.507812.128906-1.015625.261719-1.519531.394531-.507813.132813-1.015625.269531-1.519531.40625-.492188.136719-.984375.273438-1.476563.414063-.511719.144531-1.023437.292968-1.53125.445312-.480469.140625-.957031.285156-1.433593.429688-.511719.160156-1.023438.316406-1.535157.480468-.464843.148438-.929687.300782-1.390625.453126-.515625.167968-1.03125.335937-1.542968.511718-.449219.152344-.894532.3125-1.34375.46875-.519532.183594-1.039063.363282-1.554688.550782-.429688.15625-.855469.316406-1.285156.476562-.527344.199219-1.054688.394531-1.574219.597656-.40625.15625-.8125.320313-1.214844.480469-.539062.210937-1.078125.425781-1.609375.644531-.375.152344-.746094.308594-1.117187.464844-.554688.234375-1.113281.46875-1.667969.710938-.328125.140624-.648438.289062-.976562.433593-.589844.261719-1.183594.523438-1.769532.792969-.238281.109375-.476562.226562-.710937.335938-.667969.308593-1.332031.621093-1.992188.941406-.03125.011718-.058593.027344-.085937.042968-3.449219 1.675782-6.792969 3.472657-10.023438 5.382813-.019531.011719-.035156.023437-.054687.035156-.714844.421875-1.425781.855469-2.128907 1.289063-.113281.070312-.226562.136718-.339843.207031-.660157.410156-1.3125.828125-1.960938 1.25-.152343.097656-.308593.195313-.457031.292969-.625.40625-1.238281.816406-1.851562 1.234375-.171876.117187-.351563.234375-.523438.351562-.601562.410157-1.195312.828125-1.785156 1.246094-.179688.125-.359375.25-.535156.378906-.582032.414063-1.15625.839844-1.730469 1.265625-.179688.132813-.363281.265625-.542969.402344-.570312.425781-1.132812.859375-1.691406 1.292969-.175782.136719-.351563.273437-.523438.410156-.5625.4375-1.113281.882813-1.660156 1.332031-.171875.136719-.339844.273438-.507812.410156-.550782.453126-1.089844.910157-1.628907 1.367188-.164062.136719-.324219.277344-.484375.414062-.542968.464844-1.078125.9375-1.605468 1.410157-.152344.132812-.300782.269531-.449219.402343-.535157.484376-1.066407.972657-1.59375 1.464844-.132813.125-.269531.253906-.402344.378906-.53125.503907-1.058594 1.011719-1.582031 1.523438-.117188.117188-.238282.238281-.359375.355469-.527344.523437-1.050781 1.054687-1.570313 1.585937-.101562.105469-.203125.210938-.304687.320313-.53125.546875-1.050781 1.101562-1.566407 1.65625-.085937.089843-.164062.183593-.25.273437-.527343.574219-1.054687 1.15625-1.566406 1.742188-.0625.066406-.121094.132812-.175781.203125-.535156.609375-1.066406 1.226562-1.585937 1.847656-.027344.035156-.058594.070313-.085938.105469-10.714844 12.84375-17.992188 27.660156-20.785156 43.621094 0 .003906 0 .007812-.003906.015624-.144532.835938-.277344 1.675782-.398438 2.515626-.003906.007812-.003906.015624-.003906.019531-.121094.839843-.230469 1.6875-.328125 2.535156v.019531c-.097657.851563-.179688 1.703125-.253907 2.558594-.191406 2.324219-.296874 4.667969-.296874 7.03125 0 20.492188 7.34375 36.082031 20.042968 47.691406l183.484375 183.480469c58.203125-15.910156 98.605469-50.796875 98.605469-91.285156 0-3.886719-.386719-7.722657-1.113281-11.496094l-18.398438-105.507813c-1.589843-10.765624-7.800781-20.898437-17.640625-29.910156-1.757812-21.300781-11.457031-40.867187-26.757812-56.859375-.457032-.476562-.917969-.953125-1.386719-1.421875-.246094-.25-.488281-.5-.734375-.746094-.710938-.703124-1.429688-1.398437-2.164062-2.089843-.113282-.109375-.234376-.214844-.351563-.324219-.632813-.589844-1.273437-1.175781-1.921875-1.753906-.257812-.230469-.519531-.457032-.78125-.6875-.523438-.460938-1.054688-.917969-1.589844-1.371094-.28125-.238281-.566406-.476562-.847656-.710938-.550781-.460937-1.109375-.914062-1.667969-1.359374-.261719-.210938-.515625-.417969-.777343-.625-.753907-.59375-1.519532-1.183594-2.289063-1.765626-.066406-.046874-.128906-.097656-.191406-.144531-.847657-.636719-1.707031-1.261719-2.578125-1.878906-.230469-.164063-.464844-.324219-.695313-.488281-.644531-.449219-1.292969-.894532-1.945312-1.335938-.289063-.195312-.578125-.386718-.867188-.578125-.628906-.417969-1.265625-.828125-1.90625-1.238281-.277343-.175781-.554687-.355469-.835937-.53125-.753906-.472656-1.515625-.941406-2.285156-1.402344-.160157-.09375-.316407-.191406-.476563-.289062-.941406-.558594-1.894531-1.113282-2.859375-1.652344-.175781-.101562-.359375-.195312-.535156-.296875-.777344-.429687-1.554688-.855469-2.34375-1.273437-.296875-.160157-.59375-.3125-.890625-.46875-.695313-.363282-1.394531-.71875-2.097657-1.074219-.308593-.152344-.621093-.308594-.929687-.460938-.761719-.375-1.527344-.742187-2.300781-1.105469-.234375-.109374-.472656-.222656-.707032-.335937-1.027343-.472656-2.058593-.9375-3.097656-1.390625-.078125-.035156-.152344-.066406-.230468-.097656-.945313-.410156-1.898438-.808594-2.859376-1.203125-.304687-.121094-.613281-.246094-.917968-.367188-.753906-.300781-1.507813-.597656-2.265625-.886719-.34375-.128906-.683594-.257812-1.027344-.386718-.773437-.289063-1.550781-.570313-2.328125-.84375-.304688-.109375-.605469-.21875-.910156-.324219-2.160156-.75-4.351563-1.457031-6.570313-2.117187-.304687-.089844-.613281-.175782-.917969-.265626-.808593-.234374-1.621093-.464843-2.441406-.6875-.367187-.101562-.742187-.203124-1.113281-.300781-.785156-.207031-1.570313-.410156-2.363281-.605469-.359375-.089843-.722656-.179687-1.082032-.269531-.933593-.222656-1.871093-.4375-2.8125-.648437-.207031-.042969-.410156-.09375-.617187-.140625-1.152344-.25-2.308594-.488281-3.472656-.714844-.28125-.054687-.566407-.105469-.847657-.15625-.882812-.167969-1.765624-.328125-2.65625-.480469-.394531-.070312-.792968-.132812-1.191406-.199218-.796875-.132813-1.597656-.257813-2.40625-.375-.402344-.0625-.808594-.121094-1.21875-.179688-.875-.125-1.753906-.238281-2.632812-.347656-.316406-.039063-.632813-.082032-.953125-.121094-1.195313-.140625-2.394531-.269531-3.601563-.386719-.210937-.019531-.429687-.035156-.644531-.054687-.992187-.09375-1.988281-.175782-2.988281-.25-.40625-.03125-.8125-.058594-1.222656-.082032-.824219-.058593-1.648438-.105468-2.476563-.148437-.441406-.023437-.878906-.046875-1.320313-.066406-.847656-.035157-1.699218-.066407-2.550781-.089844-.390625-.011719-.78125-.027344-1.175781-.035156-1.230469-.027344-2.46875-.042969-3.710938-.042969-1.121093 0-2.238281.011719-3.355468.035156-.378906.003906-.757813.019532-1.140625.03125zm0 0" fill="url(#t)"/><path d="m475.148438 224.40625c0 58.300781-59.386719 76.957031-132.640626 76.957031-73.257812 0-132.640624-18.65625-132.640624-76.957031s59.382812-105.5625 132.640624-105.5625c73.253907 0 132.640626 47.261719 132.640626 105.5625zm0 0" fill="url(#u)"/><path d="m370.953125 121.308594c-2.242187-.214844-4.5-.371094-6.765625-.558594-1.132812-.066406-2.273438-.195312-3.40625-.191406l-3.40625.054687-3.421875.070313c-1.140625.03125-2.289063.042968-3.417969.207031l-6.828125.761719c-9.035156 1.488281-17.988281 3.925781-26.496093 7.542968-8.488282 3.632813-16.535157 8.265626-24.101563 13.542969-7.53125 5.335938-14.46875 11.433594-20.972656 17.917969-1.585938 1.65625-3.21875 3.277344-4.765625 4.972656l-4.570313 5.136719c-2.917969 3.527344-5.859375 7.042969-8.550781 10.738281-5.460938 7.332032-10.492188 14.960938-15 22.871094-4.574219 7.871094-8.625 16.019531-12.285156 24.320312-.53125 1.25-1.058594 2.5-1.582032 3.753907-.363281.878906.003907 1.636719.613282 2.039062l25.054687 25.054688c.617188.949219 2.195313 1.226562 2.917969-.058594.660156-1.171875 1.328125-2.339844 2-3.503906 4.414062-7.792969 9.128906-15.390625 14.050781-22.820313 4.984375-7.390625 10.171875-14.613281 15.699219-21.542968 5.523438-6.929688 11.3125-13.640626 17.570312-19.851563 1.507813-1.613281 3.132813-3.097656 4.730469-4.617187l2.398438-2.269532c.792969-.765625 1.660156-1.441406 2.480469-2.175781 1.671874-1.425781 3.285156-2.929687 5.007812-4.292969l5.179688-4.074218c7.03125-5.265626 14.476562-9.921876 22.269531-13.996094l5.972656-2.785156c.5-.226563.988281-.484376 1.5-.683594l1.539063-.585938 3.074218-1.199218 3.023438-1.195313c.039062-.015625.078125-.03125.117187-.042969l3.097657-.964844 3.167968-.976562c1.058594-.3125 2.109375-.691406 3.191406-.902344l6.484376-1.53125c1.078124-.292968 2.179687-.4375 3.28125-.597656l3.304687-.527344 3.316406-.539062c1.109375-.175782 2.226563-.199219 3.34375-.308594 2.234375-.210938 4.480469-.390625 6.742188-.632812zm0 0" fill="url(#v)"/><path d="m228.410156 233.925781c-1.035156 1.84375-3.835937.476563-3.027344-1.476562.523438-1.253907 1.050782-2.507813 1.582032-3.753907 3.660156-8.300781 7.710937-16.453124 12.285156-24.320312 4.507812-7.914062 9.542969-15.539062 15-22.871094 2.691406-3.699218 5.632812-7.210937 8.550781-10.738281l4.570313-5.140625c1.546875-1.691406 3.179687-3.3125 4.765625-4.972656 6.503906-6.480469 13.441406-12.578125 20.972656-17.914063 7.570313-5.277343 15.613281-9.910156 24.101563-13.542969 8.503906-3.617187 17.460937-6.058593 26.496093-7.546874l6.828125-.757813c1.128906-.164063 2.273438-.175781 3.417969-.207031l3.421875-.070313 3.40625-.054687c1.136719-.003906 2.273438.125 3.40625.1875 2.265625.1875 4.523438.34375 6.765625.5625-2.261719.238281-4.503906.421875-6.742187.628906-1.113282.113281-2.234376.136719-3.34375.308594l-3.316407.542968-3.304687.523438c-1.101563.164062-2.203125.308594-3.28125.601562l-6.480469 1.527344c-1.085937.214844-2.136719.59375-3.195313.90625l-3.167968.976563-3.097656.964843c-.039063.011719-.078126.023438-.117188.039063l-3.019531 1.195313-3.078125 1.203124-1.539063.582032c-.511719.203125-1 .457031-1.5.683594l-5.972656 2.789062c-7.792969 4.070312-15.238281 8.726562-22.269531 13.992188l-5.179688 4.074218c-1.71875 1.363282-3.332031 2.871094-5.003906 4.296875-.824219.730469-1.6875 1.40625-2.480469 2.171875l-2.402343 2.273438c-1.59375 1.515625-3.222657 3-4.730469 4.613281-6.257813 6.214844-12.046875 12.921875-17.570313 19.851563-5.527344 6.933593-10.714844 14.15625-15.699218 21.546874-4.917969 7.425782-9.636719 15.027344-14.050782 22.820313-.671875 1.164063-1.339844 2.332031-2 3.503906zm0 0" fill="url(#w)"/><path d="m383.90625 124.78125c-4.40625-.21875-8.847656-.117188-13.28125.316406-4.429688.464844-8.828125 1.28125-13.191406 2.332032-4.335938 1.152343-8.601563 2.59375-12.78125 4.277343-4.179688 1.691407-8.1875 3.78125-12.113282 5.996094-15.699218 9.003906-28.941406 21.777344-39.878906 35.925781-10.925781 14.21875-19.773437 29.851563-26.820312 46.144532-3.570313 8.128906-6.632813 16.460937-9.332032 24.890624-.386718 1.265626-.769531 2.539063-1.144531 3.808594-.253906.859375.125 1.539063.710938 1.898438l29.269531 29.265625c.609375 1.058593 2.40625 1.289062 3.035156-.160157.523438-1.207031 1.050782-2.40625 1.585938-3.601562 3.507812-8.011719 7.296875-15.875 11.265625-23.617188 8.023437-15.433593 17-30.316406 27.523437-43.957031 10.519532-13.605469 22.664063-25.953125 36.878906-35.515625 7.117188-4.742187 14.742188-8.757812 22.816407-11.808594 4.03125-1.542968 8.183593-2.785156 12.402343-3.875 4.226563-1.042968 8.539063-1.808593 12.90625-2.464843zm0 0" fill="url(#x)"/><path d="m258.527344 249.621094c-.839844 1.9375-3.761719.875-3.164063-1.148438.375-1.269531.757813-2.539062 1.148438-3.808594 2.695312-8.429687 5.757812-16.761718 9.328125-24.890624 7.046875-16.292969 15.894531-31.925782 26.824218-46.144532 10.933594-14.148437 24.175782-26.921875 39.875-35.925781 3.929688-2.214844 7.933594-4.304687 12.113282-5.996094 4.183594-1.683593 8.449218-3.125 12.78125-4.277343 4.363281-1.050782 8.765625-1.867188 13.191406-2.332032 4.433594-.433594 8.875-.53125 13.28125-.316406-4.367188.660156-8.675781 1.425781-12.90625 2.46875-4.21875 1.089844-8.371094 2.332031-12.402344 3.875-8.074218 3.050781-15.699218 7.066406-22.816406 11.808594-14.214844 9.5625-26.359375 21.910156-36.878906 35.515625-10.523438 13.640625-19.5 28.523437-27.523438 43.957031-3.96875 7.738281-7.757812 15.605469-11.265625 23.613281-.535156 1.199219-1.0625 2.398438-1.585937 3.601563zm0 0" fill="url(#y)"/><path d="m419.957031 139.425781c-4.296875-1.113281-8.710937-1.835937-13.191406-2.183593-4.480469-.324219-9.003906-.148438-13.511719.328124-9.023437 1.046876-17.84375 3.886719-26.023437 7.929688-4.089844 2.03125-8.023438 4.367188-11.777344 6.949219-3.773437 2.554687-7.34375 5.394531-10.757813 8.386719-3.414062 2.992187-6.65625 6.167968-9.761718 9.457031-3.070313 3.320312-6.007813 6.757812-8.816406 10.28125-11.148438 14.183593-20.167969 29.808593-27.503907 46.066406-3.710937 8.109375-6.945312 16.421875-9.839843 24.828125-.417969 1.265625-.832032 2.53125-1.238282 3.796875-.28125.878906.109375 1.585937.714844 1.949219l29.59375 29.59375c.613281 1.035156 2.359375 1.28125 3.015625-.132813.550781-1.199219 1.109375-2.390625 1.675781-3.585937 3.699219-7.980469 7.652344-15.824219 11.761719-23.550782 8.308594-15.398437 17.46875-30.296874 28.191406-43.890624 10.707031-13.546876 23.105469-25.820313 37.84375-34.542969 3.691407-2.160157 7.550781-4.003907 11.507813-5.640625 3.953125-1.648438 8.054687-2.957032 12.261718-3.894532 4.195313-1 8.496094-1.632812 12.851563-1.957031 4.355469-.292969 8.757813-.246093 13.191406 0zm0 0" fill="url(#z)"/><path d="m290.671875 256.492188c-.886719 1.914062-3.785156.785156-3.140625-1.222657.410156-1.269531.824219-2.535156 1.242188-3.800781 2.894531-8.40625 6.125-16.714844 9.839843-24.828125 7.332031-16.253906 16.355469-31.882813 27.5-46.066406 2.8125-3.523438 5.746094-6.960938 8.820313-10.277344 3.105468-3.292969 6.347656-6.464844 9.761718-9.460937 3.414063-2.992188 6.984376-5.828126 10.757813-8.386719 3.753906-2.582031 7.6875-4.917969 11.777344-6.945313 8.179687-4.046875 17-6.886718 26.019531-7.929687 4.507812-.480469 9.035156-.65625 13.515625-.332031 4.476563.347656 8.894531 1.074218 13.1875 2.183593-4.433594-.242187-8.832031-.289062-13.1875 0-4.355469.328125-8.65625.960938-12.851563 1.960938-4.207031.933593-8.3125 2.246093-12.265624 3.894531-3.953126 1.636719-7.8125 3.480469-11.503907 5.640625-14.742187 8.722656-27.136719 20.996094-37.847656 34.542969-10.71875 13.589844-19.878906 28.488281-28.1875 43.890625-4.109375 7.726562-8.0625 15.570312-11.761719 23.550781-.566406 1.191406-1.125 2.386719-1.675781 3.585938zm0 0" fill="url(#A)"/><path d="m465.773438 185.628906c.042968-.011718.085937-.015625.128906-.023437-2.683594-5.394531-5.90625-10.566407-9.617188-15.484375l-19.714844-19.710938c-3.660156-.925781-7.550781-.828125-11.332031-.332031-3.804687.5-7.519531 1.582031-11.136719 2.929687-3.601562 1.398438-6.996093 3.246094-10.328124 5.214844-3.257813 2.0625-6.367188 4.371094-9.296876 6.867188-5.90625 4.960937-11.078124 10.699218-15.761718 16.746094-4.636719 6.09375-8.667969 12.574218-12.417969 19.1875-7.265625 13.347656-12.949219 27.421874-17.375 41.796874-2.59375 8.347657-4.796875 16.792969-6.585937 25.324219-.179688.859375.234374 1.503907.828124 1.824219l30.15625 30.15625c2.925782-.25 5.820313-.539062 8.667969-.871094 2.425781-6.59375 4.886719-13.148437 7.46875-19.644531 5.519531-13.722656 11.476563-27.203125 18.480469-40.046875 1.84375-3.148438 3.546875-6.394531 5.542969-9.441406.976562-1.53125 1.871093-3.128906 2.917969-4.613282l3.0625-4.511718c4.210937-5.914063 8.804687-11.523438 13.886718-16.648438 5.109375-5.089844 10.773438-9.628906 17.113282-13.113281 3.15625-1.757813 6.496093-3.199219 9.976562-4.300781 1.734375-.574219 3.523438-.976563 5.335938-1.304688zm0 0" fill="url(#B)"/><path d="m436.570312 150.410156c-1.875-.039062-3.71875.144532-5.53125.480469-1.8125.332031-3.597656.738281-5.335937 1.308594-3.480469 1.101562-6.820313 2.542969-9.976563 4.300781-6.339843 3.480469-12.003906 8.023438-17.113281 13.113281-5.082031 5.125-9.679687 10.734375-13.890625 16.644531l-3.0625 4.511719c-1.042968 1.484375-1.9375 3.082031-2.917968 4.617188-1.992188 3.042969-3.699219 6.289062-5.539063 9.4375-7.003906 12.847656-12.964844 26.328125-18.480469 40.050781-3.179687 7.988281-6.171875 16.070312-9.144531 24.199219-.71875 1.976562-3.671875 1.125-3.242187-.933594 1.789062-8.527344 3.992187-16.976563 6.585937-25.320313 4.425781-14.375 10.109375-28.453124 17.375-41.800781 3.75-6.613281 7.78125-13.09375 12.417969-19.183593 4.679687-6.050782 9.851562-11.789063 15.761718-16.746094 2.929688-2.5 6.035157-4.808594 9.296876-6.867188 3.328124-1.96875 6.726562-3.816406 10.328124-5.21875 3.613282-1.347656 7.332032-2.425781 11.136719-2.929687 3.78125-.492188 7.671875-.589844 11.332031.335937zm0 0" fill="url(#C)"/><path d="m457.933594 172.371094c-.355469-.363282-.546875-.566406-.523438-.558594-.660156-.476562-1.316406-.996094-2.023437-1.4375-.734375-.386719-1.433594-.882812-2.222657-1.191406-.773437-.339844-1.5625-.671875-2.398437-.882813-.816406-.277343-1.667969-.417969-2.527344-.5625-3.464843-.574219-7.066406.070313-10.363281 1.238281-3.308594 1.203126-6.34375 2.980469-9.109375 5.03125-2.773437 2.042969-5.304687 4.355469-7.660156 6.796876-4.714844 4.886718-8.769531 10.273437-12.457031 15.835937-3.6875 5.574219-6.972657 11.359375-10.023438 17.242187-6.066406 11.785157-11.117188 24-15.4375 36.433594-2.464844 7.207032-4.730469 14.480469-6.652344 21.847656-.246094.941407.25 1.65625.929688 1.964844l22.375 22.371094c14.964844-2.925781 28.371094-7.292969 39.578125-13.386719 3.359375-7.214843 6.800781-14.367187 10.425781-21.402343 1.46875-2.867188 2.976562-5.714844 4.546875-8.519532 1.535156-2.824218 3.144531-5.601562 4.796875-8.339844 3.289062-5.488281 6.832031-10.792968 10.769531-15.714843 1.632813-2.015625 3.347657-3.972657 5.171875-5.792969-.226562-18.523438-6.445312-35.902344-17.195312-50.972656zm0 0" fill="url(#D)"/><path d="m379.71875 273.285156c-.847656 1.902344-3.707031.894532-3.183594-1.121094 1.925782-7.363281 4.1875-14.640624 6.65625-21.847656 4.316406-12.433594 9.367188-24.648437 15.4375-36.433594 3.046875-5.882812 6.332032-11.667968 10.019532-17.242187 3.6875-5.5625 7.742187-10.949219 12.457031-15.835937 2.355469-2.441407 4.886719-4.753907 7.660156-6.796876 2.765625-2.050781 5.804687-3.828124 9.109375-5.03125 3.296875-1.167968 6.902344-1.8125 10.363281-1.238281.859375.144531 1.710938.285157 2.53125.5625.832031.210938 1.621094.542969 2.398438.882813.785156.308594 1.484375.804687 2.21875 1.191406.707031.441406 1.363281.960938 2.027343 1.4375-3.019531-1.332031-6.210937-2.039062-9.292968-1.894531-3.085938.121093-6.007813 1.164062-8.671875 2.597656-5.347657 2.941406-9.753907 7.527344-13.707031 12.40625-3.9375 4.921875-7.480469 10.226563-10.769532 15.714844-1.652344 2.738281-3.261718 5.515625-4.796875 8.339843-1.570312 2.804688-3.074219 5.652344-4.542969 8.519532-5.914062 11.464844-11.363281 23.234375-16.699218 35.101562-3.09375 6.867188-6.140625 13.769532-9.214844 20.6875zm0 0" fill="url(#E)"/><path d="m490.804688 367.308594c-2.253907-24.785156-6.761719-89.371094-6.761719-89.371094l-15.03125-19.128906c-7.074219-60.625-38.195313-106.289063-75.511719-106.289063-42.542969 0-77.027344 59.332031-77.027344 132.523438 0 4.851562.15625 9.644531.449219 14.363281l-11.621094 25.09375v69.84375c0 26.285156-2.25 49.566406 33.046875 60.082031 35.296875 10.511719 114.152344-8.261719 145.695313-49.566406 0 0 9.015625-12.769531 6.761719-37.550781zm0 0" fill="url(#F)"/><path d="m481.46875 366.25c-2.011719-23.457031-6.035156-84.585938-6.035156-84.585938l-13.417969-18.105468c-6.320313-57.378906-34.101563-100.597656-67.425781-100.597656-37.984375 0-68.773438 56.15625-68.773438 125.429687 0 4.59375.140625 9.128906.402344 13.59375l-10.375 23.75v66.105469c0 24.878906-2.011719 46.914062 29.503906 56.863281 31.515625 9.953125 101.921875-7.816406 130.085938-46.914063 0 0 8.046875-12.082031 6.035156-35.539062zm0 0" fill="url(#G)"/><path d="m326.21875 301.984375-10.375 23.75v66.105469c0 24.878906-2.011719 46.910156 29.503906 56.863281 31.515625 9.949219 101.921875-7.820313 130.085938-46.914063 0 0 8.046875-12.082031 6.035156-35.539062s-6.035156-84.585938-6.035156-84.585938l-13.417969-18.105468s-5.796875 38.0625-135.796875 38.425781zm0 0" fill="url(#I)"/><path d="m345.347656 448.703125c31.515625 9.953125 101.921875-7.816406 130.085938-46.910156 0 0 8.046875-12.085938 6.035156-35.542969-2.011719-23.453125-6.035156-84.582031-6.035156-84.582031s-11.238282 38.730469-159.589844 44.066406v66.105469c0 24.878906-2.011719 46.910156 29.503906 56.863281zm0 0" fill="url(#J)"/><path d="m465.253906 351.875c-1.34375-15.660156-4.027344-56.46875-4.027344-56.46875l-8.960937-12.085938c-4.21875-38.300781-22.765625-67.152343-45.011719-67.152343-25.355468 0-45.910156 37.484375-45.910156 83.730469 0 3.066406.09375 6.09375.269531 9.074218l-6.925781 15.855469v44.128906c0 16.605469-1.34375 31.316407 19.695312 37.960938 21.039063 6.640625 68.039063-5.222657 86.839844-31.320313.003906 0 5.371094-8.066406 4.03125-23.722656zm0 0" fill="url(#K)"/><path d="m454.386719 344.109375c-1.078125-12.574219-3.238281-45.34375-3.238281-45.34375l-7.191407-9.707031c-3.390625-30.757813-18.285156-53.929688-36.148437-53.929688-20.359375 0-36.867188 30.105469-36.867188 67.242188 0 2.460937.074219 4.890625.214844 7.285156l-5.5625 12.734375v35.4375c0 13.335937-1.078125 25.148437 15.816406 30.484375 16.898438 5.335938 54.640625-4.191406 69.738282-25.148438 0-.003906 4.316406-6.480468 3.238281-19.054687zm0 0" fill="url(#L)"/><path d="m449.820312 425.585938-123.601562-123.601563-10.375 23.75v66.105469c0 24.878906-2.011719 46.910156 29.503906 56.863281 24.160156 7.628906 71.15625-1.050781 104.472656-23.117187zm0 0" fill="url(#N)"/><path d="m481.46875 366.25c-2.011719-23.457031-6.035156-84.585938-6.035156-84.585938l-13.417969-18.105468c-6.320313-57.378906-34.101563-100.597656-67.425781-100.597656-37.984375 0-68.773438 56.15625-68.773438 125.429687 0 4.59375.140625 9.128906.402344 13.59375l-10.375 23.75v66.105469c0 24.878906-2.011719 46.914062 29.503906 56.863281 31.515625 9.953125 101.921875-7.816406 130.085938-46.914063 0 0 8.046875-12.082031 6.035156-35.539062zm0 0" fill="url(#O)"/></svg>