<svg id="Capa_1" enable-background="new 0 0 508.556 508.556" height="512" viewBox="0 0 508.556 508.556" width="512" xmlns="http://www.w3.org/2000/svg"><g id="XMLID_616_"><path id="XMLID_188_" d="m421.672 10.607-10.607-10.607-35.961 35.963-151.75 171.749-187.391 167.393-35.963 35.96 10.607 10.606c55.533 55.534 129.112 86.388 207.182 86.878.634.004 1.257.006 1.891.006 77.428 0 149.979-29.938 204.459-84.418 54.925-54.925 84.903-128.208 84.412-206.349-.491-78.069-31.345-151.648-86.879-207.181z" fill="#76dd00"/><path id="XMLID_187_" d="m421.672 10.607-10.607-10.607-35.961 35.963-151.75 171.749-8.262 7.381 209.046 209.046c54.925-54.925 84.903-128.208 84.412-206.349-.49-78.071-31.344-151.65-86.878-207.183z" fill="#00cc71"/><path id="XMLID_185_" d="m361.824 50.993-156.29 154.54-169.571 169.572 11.686 10.58c27.948 25.304 68.252 45.484 103.616 55.628 4.972 1.426 8.762-7.564 12.172-6.811 5.695 1.258 10.33 11.8 17.638 12.37 7.288.569 20.877 1.823 29.656 1.823 1.417 0 2.841-.012 4.261-.037 56.142-.976 111.221-23.009 153.173-59.136 4.493-3.869-3.215-16.113 1.015-20.343 3.459-3.459 17.092 2.654 20.195-.867 36.122-40.987 48.29-86.084 49.284-143.321 1.075-61.87-35.15-127.956-76.835-173.998z" fill="#efef9c"/><path id="XMLID_237_" d="m438.654 224.992c-.99 57.05-13.43 102.44-49.28 143.32l-173.25-173.26 5.22-5.15 31.59-31.24 108.89-107.67c25.41 28.07 48.8 63.59 62.93 101.06 3.7 9.79 6.76 19.71 9.06 29.67 3.35 14.45 5.09 28.97 4.84 43.27z" fill="#ffa2e5"/><path id="XMLID_184_" d="m385.684 47.648-10.58-11.686-169.57 169.571 163.646 163.646c3.947-3.947 16.561 3.31 20.195-.867 36.614-42.093 58.302-96.778 59.284-153.321.166-9.524-.834-24.4-1.764-33.769-.547-5.504-11.123-9.798-11.862-13.892-.902-4.994 7.953-9.69 6.323-15.918-9.535-36.424-28.773-74.053-55.672-103.764z" fill="#d8f469"/><path id="XMLID_208_" d="m189.754 221.312-8.68 225.56c-10.08-1.22-20.03-3.09-29.81-5.56l7.27-188.78z" fill="#7ee881"/><path id="XMLID_206_" d="m389.375 368.312c-3.21 3.66-6.61 7.28-10.2 10.87-3.57 3.57-7.25 7.02-11.01 10.34l-173.31-173.31 10.68-10.68 10.59-10.48z" fill="#7ee881"/><g fill="#76dd00"><path id="XMLID_414_" d="m379.174 379.182c3.59-3.59 6.99-7.21 10.2-10.87l-173.25-173.26-10.59 10.48-.005.005z"/><path id="XMLID_209_" d="m446.894 181.222-13.08.5-212.47 8.18-.19.01 31.23-31.23.55-.02 171.82-6.61 16.6-.64c2.47 9.78 4.32 19.73 5.54 29.81z"/></g></g></svg>