<svg height="511pt" viewBox="0 -37 511.99983 511" width="511pt" xmlns="http://www.w3.org/2000/svg" xmlns:xlink="http://www.w3.org/1999/xlink"><linearGradient id="a"><stop offset="0" stop-color="#cfffb4"/><stop offset="1" stop-color="#8ee388"/></linearGradient><linearGradient id="b" gradientTransform="matrix(.984445 -.196668 .196668 .984445 -23.824063 17.020012)" gradientUnits="userSpaceOnUse" x1="201.5719" x2="360.3481" xlink:href="#a" y1="129.6532" y2="320.9593"/><linearGradient id="c"><stop offset="0" stop-color="#f8ebe1"/><stop offset="1" stop-color="#fbd1a2"/></linearGradient><linearGradient id="d" gradientTransform="matrix(.984445 -.196668 .196668 .984445 -23.824063 17.020012)" gradientUnits="userSpaceOnUse" x1="223.3799" x2="223.3799" xlink:href="#c" y1="145.0852" y2="208.9539"/><linearGradient id="e" gradientTransform="matrix(.984445 -.196668 .196668 .984445 -23.824063 17.020012)" gradientUnits="userSpaceOnUse" x1="225.955" x2="221.1088" y1="241.82" y2="134.3947"><stop offset="0" stop-color="#53d6be" stop-opacity="0"/><stop offset="1" stop-color="#4e6d79"/></linearGradient><linearGradient id="f"><stop offset="0" stop-color="#f8ebe1" stop-opacity="0"/><stop offset="1" stop-color="#fbd1a2"/></linearGradient><linearGradient id="g" gradientTransform="matrix(.984445 -.196668 .196668 .984445 -23.824063 17.020012)" gradientUnits="userSpaceOnUse" x1="226.8996" x2="222.3551" xlink:href="#f" y1="167.5149" y2="129.6443"/><linearGradient id="h" gradientTransform="matrix(.984445 -.196668 .196668 .984445 -23.824063 17.020012)" gradientUnits="userSpaceOnUse" x1="223.3804" x2="223.3804" xlink:href="#a" y1="116.8434" y2="158.7174"/><linearGradient id="i" gradientTransform="matrix(.984445 -.196668 .196668 .984445 -23.824063 17.020012)" gradientUnits="userSpaceOnUse" x1="223.3794" x2="223.3794" xlink:href="#a" y1="172.9747" y2="214.8489"/><linearGradient id="j"><stop offset="0" stop-color="#faa4bd"/><stop offset=".1419" stop-color="#f49dba"/><stop offset=".3557" stop-color="#e388b3"/><stop offset=".615" stop-color="#c766a6"/><stop offset=".9074" stop-color="#a03795"/><stop offset="1" stop-color="#93278f"/></linearGradient><linearGradient id="k" gradientUnits="userSpaceOnUse" x1="122.7975304116" x2="282.1927361566" xlink:href="#j" y1="288.7486915108" y2="480.8004759938"/><linearGradient id="l" gradientUnits="userSpaceOnUse" x1="144.6906598188" x2="144.6906598188" xlink:href="#c" y1="304.2421193446" y2="368.3519759114"/><linearGradient id="m" gradientUnits="userSpaceOnUse" x1="147.2762609298" x2="142.4112549178" y1="401.3534018564" y2="293.511899832"><stop offset="0" stop-color="#93278f" stop-opacity="0"/><stop offset="1" stop-color="#93278f"/></linearGradient><linearGradient id="n" gradientUnits="userSpaceOnUse" x1="148.2236621212" x2="143.661740161" xlink:href="#f" y1="326.757278823" y2="288.7415636646"/><linearGradient id="o" gradientUnits="userSpaceOnUse" x1="144.6905594266" x2="144.6905594266" xlink:href="#j" y1="275.8904585348" y2="317.9219620854"/><linearGradient id="p" gradientUnits="userSpaceOnUse" x1="144.6905594266" x2="144.6905594266" xlink:href="#j" y1="332.240700787" y2="374.2722043376"/><linearGradient id="q"><stop offset="0" stop-color="#ffb92d"/><stop offset="1" stop-color="#f59500"/></linearGradient><linearGradient id="r" gradientTransform="matrix(.902525 .439718 -.439718 .902525 175.405176 -174.116917)" gradientUnits="userSpaceOnUse" x1="361.004" x2="519.7729" xlink:href="#q" y1="321.4207" y2="512.7179"/><linearGradient id="s" gradientTransform="matrix(.902525 .439718 -.439718 .902525 175.405176 -174.116917)" gradientUnits="userSpaceOnUse" x1="382.811" x2="382.811" xlink:href="#c" y1="336.8519" y2="400.7173"/><linearGradient id="t" gradientTransform="matrix(.902525 .439718 -.439718 .902525 175.405176 -174.116917)" gradientUnits="userSpaceOnUse" x1="385.386" x2="380.54" y1="433.5824" y2="326.1621"><stop offset="0" stop-color="#be3f45" stop-opacity="0"/><stop offset="1" stop-color="#be3f45"/></linearGradient><linearGradient id="u" gradientTransform="matrix(.902525 .439718 -.439718 .902525 175.405176 -174.116917)" gradientUnits="userSpaceOnUse" x1="386.3304" x2="381.7862" xlink:href="#f" y1="359.2806" y2="321.4119"/><linearGradient id="v" gradientTransform="matrix(.902525 .439718 -.439718 .902525 175.405176 -174.116917)" gradientUnits="userSpaceOnUse" x1="382.8115" x2="382.8115" xlink:href="#q" y1="308.6114" y2="350.4834"/><linearGradient id="w" gradientTransform="matrix(.902525 .439718 -.439718 .902525 175.405176 -174.116917)" gradientUnits="userSpaceOnUse" x1="382.8106" x2="382.8106" xlink:href="#q" y1="364.7402" y2="406.6122"/><path d="m270.109375 242.855469-38.730469 7.734375c-57.96875 11.582031-114.347656-26.023438-125.925781-83.992188l-6.0625-30.339844c-11.578125-57.96875 26.027344-114.347656 83.996094-125.925781l38.730469-7.738281c57.96875-11.578125 114.347656 26.027344 125.925781 83.992188l6.0625 30.339843c11.578125 57.96875-26.027344 114.347657-83.996094 125.929688zm0 0" fill="url(#b)"/><path d="m359.5625 100.0625c.417969 2.09375.800781 4.1875 1.152344 6.277344.957031 5.746094-2.847656 11.210937-8.558594 12.355468l-244.226562 48.785157c-5.710938 1.140625-11.324219-2.441407-12.648438-8.117188-.480469-2.0625-.929688-4.144531-1.347656-6.238281-.417969-2.097656-.800782-4.191406-1.152344-6.28125-.957031-5.746094 2.847656-11.210938 8.5625-12.351562l244.222656-48.785157c5.710938-1.140625 11.324219 2.441407 12.648438 8.117188.476562 2.0625.929687 4.140625 1.347656 6.238281zm0 0" fill="url(#d)"/><path d="m108.96875 179.761719c1.605469 4.789062 3.523438 9.414062 5.738281 13.835937l.128907-.015625 88.230468 58.847657c9.265625.632812 18.765625.066406 28.3125-1.839844l38.730469-7.734375c53.449219-10.679688 89.585937-59.445313 85.816406-112.425781zm0 0" fill="url(#e)"/><path d="m352.152344 118.691406c5.714844-1.140625 9.519531-6.605468 8.5625-12.351562-.351563-2.089844-.734375-4.183594-1.152344-6.28125-.417969-2.09375-.871094-4.171875-1.351562-6.238282-1.320313-5.671874-6.933594-9.257812-12.648438-8.117187l-244.222656 48.785156c-3.554688.710938-6.371094 3.097657-7.757813 6.179688l34.234375 22.835937zm0 0" fill="url(#g)"/><path d="m350.929688 88.886719-253.320313 50.605469c-8.410156 1.679687-16.589844-3.777344-18.269531-12.1875-1.679688-8.410157 3.777344-16.589844 12.1875-18.265626l253.320312-50.605468c8.410156-1.679688 16.589844 3.777344 18.269532 12.1875 1.679687 8.40625-3.777344 16.585937-12.1875 18.265625zm0 0" fill="url(#h)"/><path d="m361.96875 144.148438-253.320312 50.601562c-8.410157 1.679688-16.589844-3.777344-18.269532-12.1875-1.679687-8.40625 3.777344-16.585938 12.1875-18.265625l253.320313-50.605469c8.410156-1.675781 16.589843 3.777344 18.269531 12.1875s-3.777344 16.585938-12.1875 18.269532zm0 0" fill="url(#i)"/><path d="m164.4375 437.628906h-39.496094c-59.113281 0-107.035156-47.917968-107.035156-107.035156v-30.9375c0-59.113281 47.921875-107.03125 107.035156-107.03125h39.496094c59.113281 0 107.035156 47.917969 107.035156 107.03125v30.9375c0 59.117188-47.921875 107.035156-107.035156 107.035156zm0 0" fill="url(#k)"/><path d="m280.128906 315.128906c0 2.132813-.035156 4.261719-.101562 6.382813-.183594 5.820312-4.988282 10.433593-10.8125 10.433593h-249.046875c-5.828125 0-10.628907-4.613281-10.816407-10.433593-.066406-2.121094-.101562-4.246094-.101562-6.382813 0-2.140625.035156-4.265625.101562-6.382812.1875-5.824219 4.988282-10.4375 10.816407-10.4375h249.046875c5.828125 0 10.628906 4.613281 10.8125 10.4375.066406 2.117187.101562 4.242187.101562 6.382812zm0 0" fill="url(#l)"/><path d="m18.777344 344.195312c.636718 5.011719 1.613281 9.921876 2.917968 14.695313l.132813.003906 74.992187 74.996094c8.960938 2.433594 18.390626 3.738281 28.121094 3.738281h39.496094c54.507812 0 99.5-40.742187 106.179688-93.433594zm0 0" fill="url(#m)"/><path d="m269.214844 331.945312c5.828125 0 10.628906-4.613281 10.8125-10.433593.066406-2.121094.101562-4.25.101562-6.382813 0-2.140625-.035156-4.265625-.101562-6.382812-.183594-5.824219-4.988282-10.4375-10.8125-10.4375h-249.046875c-3.628907 0-6.855469 1.785156-8.820313 4.539062l29.097656 29.097656zm0 0" fill="url(#n)"/><path d="m273.855469 302.480469h-258.328125c-8.574219 0-15.527344-6.953125-15.527344-15.527344 0-8.578125 6.953125-15.527344 15.527344-15.527344h258.328125c8.574219 0 15.527343 6.949219 15.527343 15.527344 0 8.574219-6.953124 15.527344-15.527343 15.527344zm0 0" fill="url(#o)"/><path d="m273.855469 358.828125h-258.328125c-8.574219 0-15.527344-6.949219-15.527344-15.527344 0-8.574219 6.953125-15.527343 15.527344-15.527343h258.328125c8.574219 0 15.527343 6.953124 15.527343 15.527343 0 8.578125-6.953124 15.527344-15.527343 15.527344zm0 0" fill="url(#p)"/><path d="m332.109375 426.792969-35.503906-17.300781c-53.140625-25.890626-75.230469-89.960938-49.339844-143.101563l13.550781-27.8125c25.890625-53.140625 89.960938-75.230469 143.101563-49.339844l35.503906 17.300781c53.144531 25.890626 75.234375 89.960938 49.339844 143.101563l-13.550781 27.8125c-25.890626 53.140625-89.960938 75.230469-143.101563 49.339844zm0 0" fill="url(#r)"/><path d="m489.769531 367.339844c-.9375 1.917968-1.898437 3.816406-2.886719 5.691406-2.714843 5.15625-9.054687 7.199219-14.292968 4.648438l-223.886719-109.085938c-5.238281-2.550781-7.535156-8.800781-5.148437-14.117188.867187-1.933593 1.769531-3.863281 2.703124-5.785156.9375-1.917968 1.898438-3.816406 2.886719-5.691406 2.714844-5.15625 9.054688-7.199219 14.292969-4.648438l223.886719 109.085938c5.238281 2.550781 7.535156 8.800781 5.148437 14.117188-.867187 1.933593-1.765625 3.863281-2.703125 5.785156zm0 0" fill="url(#s)"/><path d="m242.089844 278.996094c-1.621094 4.785156-2.894532 9.625-3.8125 14.488281l.113281.066406 34.570313 100.261719c6.992187 6.113281 14.894531 11.417969 23.644531 15.679688l35.503906 17.300781c49 23.875 107.292969 6.953125 136.378906-37.488281zm0 0" fill="url(#t)"/><path d="m472.589844 377.679688c5.238281 2.550781 11.578125.507812 14.292968-4.648438.988282-1.875 1.949219-3.773438 2.886719-5.691406.933594-1.921875 1.835938-3.851563 2.703125-5.785156 2.386719-5.316407.089844-11.566407-5.148437-14.117188l-223.886719-109.085938c-3.257812-1.585937-6.945312-1.394531-9.917969.21875l13.414063 38.90625zm0 0" fill="url(#u)"/><path d="m489.667969 353.21875-232.226563-113.148438c-7.710937-3.753906-10.914062-13.050781-7.160156-20.757812 3.757812-7.710938 13.050781-10.914062 20.761719-7.160156l232.226562 113.148437c7.710938 3.757813 10.914063 13.050781 7.160157 20.761719-3.757813 7.710938-13.054688 10.914062-20.761719 7.15625zm0 0" fill="url(#v)"/><path d="m464.984375 403.878906-232.226563-113.148437c-7.707031-3.757813-10.914062-13.050781-7.15625-20.761719 3.753907-7.707031 13.050782-10.914062 20.757813-7.15625l232.230469 113.148438c7.707031 3.753906 10.914062 13.050781 7.15625 20.757812-3.757813 7.710938-13.050782 10.914062-20.761719 7.160156zm0 0" fill="url(#w)"/></svg>