<?xml version="1.0" encoding="iso-8859-1"?>
<!-- Generator: Adobe Illustrator 19.0.0, SVG Export Plug-In . SVG Version: 6.00 Build 0)  -->
<svg version="1.1" id="Layer_1" xmlns="http://www.w3.org/2000/svg" xmlns:xlink="http://www.w3.org/1999/xlink" x="0px" y="0px"
	 viewBox="0 0 513.39 513.39" style="enable-background:new 0 0 513.39 513.39;" xml:space="preserve">
<path style="fill:#FFA91F;" d="M435.816,213.366c0,0.039,0,0.079,0,0.119c0.039,1.815,0.066,3.615,0.079,5.43
	c0.013,0.039,0.013,0.066,0,0.092c0.053,3.208,0.066,6.416,0.066,9.638c0,216.515-87.805,284.742-196.122,284.742
	c-108.33,0-196.135-68.227-196.135-284.742c0-3.222,0.013-6.43,0.066-9.638c-0.013-0.026-0.013-0.053,0-0.092
	c0.013-1.815,0.039-3.615,0.079-5.43c0-0.039,0-0.079,0-0.119"/>
<path style="fill:#E2901A;" d="M144.592,228.645c0-3.222-35.934-6.43-35.881-9.638c-0.013-0.026-0.013-0.053,0-0.092
	c0.013-1.815,0.039-3.615,0.079-5.43c0-0.039,0-0.079,0-0.119H43.851c0,0.039,0,0.079,0,0.119c-0.039,1.815-0.066,3.615-0.078,5.43
	c-0.013,0.039-0.013,0.066,0,0.092c-0.053,3.208-0.066,6.416-0.066,9.638c0,216.515,87.805,284.742,196.135,284.742
	c11.063,0,21.905-0.726,32.468-2.235C179.435,497.891,144.592,423.048,144.592,228.645z"/>
<path style="fill:#FCE275;" d="M238.806,129.722c0.344,0,0.688,0,1.033,0c108.318,0,196.13,38.971,196.13,87.042
	c0,48.06-87.812,87.031-196.13,87.031s-196.13-38.971-196.13-87.031c0-30.456,35.265-57.274,88.661-72.813"/>
<path style="fill:#E5CC61;" d="M366.185,191.576l-23.651,30.388l-35.115-51.95C332.275,174.913,352.759,182.429,366.185,191.576z"/>
<path style="fill:#FFA91F;" d="M366.185,191.576c11.005,7.482,17.259,16.066,17.259,25.189c0,19.727-29.286,36.951-72.698,46.052
	l31.787-40.853L366.185,191.576z"/>
<g>
	<path style="fill:#FFD41D;" d="M282.563,267.338c-13.495,1.549-27.84,2.387-42.724,2.387c-9.468,0-18.728-0.333-27.691-0.987
		c-14.93-1.078-29.045-3.007-41.92-5.646l37.066-58.548l9.593-15.147l26.142,31.019L282.563,267.338z"/>
	<polygon style="fill:#FFD41D;" points="283.767,166.329 243.029,220.414 231.738,207.021 231.738,207.01 216.888,189.396 
		207.294,204.543 204.585,202.833 176.264,166.146 176.275,166.135 216.039,130.365 227.227,120.3 238.806,129.722 	"/>
	<path style="fill:#FFD41D;" d="M207.294,204.543l-37.066,58.548c-13.393-2.743-25.476-6.254-35.804-10.374H134.4
		c-23.697-9.445-38.168-22.079-38.168-35.953l9.353-18.843l37.261-75.085l33.418,43.31l28.321,36.688L207.294,204.543z"/>
</g>
<g>
	<path style="fill:#FFA91F;" d="M142.847,122.836l-8.423,129.882h-0.023c-23.697-9.445-38.168-22.079-38.168-35.953l9.353-18.843
		L142.847,122.836z"/>
	<path style="fill:#FFA91F;" d="M216.888,189.396l-4.74,79.342c-14.93-1.078-29.045-3.007-41.92-5.646l37.066-58.548
		L216.888,189.396z"/>
	<polygon style="fill:#FFA91F;" points="231.738,207.01 216.888,189.396 207.294,204.543 204.585,202.833 176.264,166.146 
		176.275,166.135 216.039,130.365 227.227,120.3 	"/>
</g>
<path style="fill:#C62020;" d="M303.559,187.653c-1.128,0-2.273-0.223-3.375-0.694c-4.371-1.866-6.402-6.924-4.535-11.295
	l34.234-80.169c1.868-4.371,6.922-6.402,11.295-4.535c4.371,1.866,6.402,6.924,4.535,11.295l-34.234,80.169
	C310.082,185.694,306.903,187.653,303.559,187.653z"/>
<path style="fill:#F94848;" d="M469.058,116.208c-6.392,15.412-36.492,18.636-75.578,10.534c-4.188-0.872-8.48-1.871-12.864-3.007
	c-14.482-3.718-29.906-8.871-45.604-15.389c-15.687-6.519-30.215-13.816-43.08-21.448c-3.89-2.307-7.631-4.648-11.212-7.012
	c-33.314-21.975-52.26-45.581-45.856-60.993c7.631-18.35,99.104-19.176,132.75-18.843c7.654,0.081,12.313,0.207,12.313,0.207
	s3.236,3.076,8.492,8.228C412.104,31.806,476.723,97.756,469.058,116.208z"/>
<path style="fill:#E23D3D;" d="M379.924,0.259c0,0-84.575,46.293-93.653,83.198c-36.734-22.951-58.158-48.312-51.411-64.562
	C244.225-3.631,379.924,0.259,379.924,0.259z"/>
<path style="fill:#C62020;" d="M393.479,126.743c-4.188-0.872-8.48-1.871-12.864-3.007l1.022-1.675
	c13.61-22.469,1.859-82.659-5.887-112.174c-26.383,15.435-77.082,49.609-83.347,75.073l-0.471,1.939
	c-3.89-2.307-7.631-4.648-11.212-7.012c9.685-31.374,64.596-66.604,86.894-79.836c7.654,0.081,12.313,0.207,12.313,0.207
	s3.236,3.076,8.492,8.228C394.776,33.355,408.902,97.572,393.479,126.743z"/>
<path style="fill:#FFD41D;" d="M342.534,221.963l-31.787,40.853c-5.531,1.17-11.293,2.204-17.247,3.087
	c-3.581,0.528-7.218,1.01-10.936,1.435l-39.533-46.924l40.738-54.085l11.155-14.803l12.497,18.488L342.534,221.963z"/>
<path style="fill:#FFA91F;" d="M294.922,151.526l-1.423,114.378c-3.581,0.528-7.218,1.01-10.936,1.435l-39.534-46.924l40.738-54.085
	L294.922,151.526z"/>
<path style="fill:#D38318;" d="M409.81,260.217c-5.6,4.303-12.015,8.377-19.141,12.175c-5.566,13.472-16.88,39.305-34.014,71.195
	c-14.551-16.548-28.896-33.176-39.04-45.203l1.045-1.354l-0.574-0.436c-7.677,1.48-15.595,2.754-23.743,3.798
	c-17.03,21.873-35.896,44.617-54.509,66.295c-18.613-21.677-37.491-44.422-54.509-66.295c-8.148-1.045-16.066-2.319-23.743-3.798
	l-0.574,0.436l1.045,1.354c-10.144,12.027-24.477,28.644-39.028,45.191c-17.135-31.892-28.461-57.723-34.026-71.184
	c-7.126-3.798-13.541-7.872-19.141-12.164l-23.18,33.245c0.826,8.48,1.825,16.674,2.984,24.581l0.574,0.402l24.581-35.242
	c6.369,15.17,17.845,40.727,34.69,71.78c0.425,0.78,0.872,1.595,1.308,2.387c-16.444,18.488-31.672,35.138-39.672,42.884
	c2.365,5.749,4.866,11.258,7.493,16.513l1.904-1.733c7.253-6.586,22.458-23.066,39.178-41.783
	c12.818,22.286,28.873,47.887,48.083,74.235c-19.302,20.932-32.086,34.3-32.442,34.657l-1.113,1.17
	c4.855,3.385,9.858,6.449,14.999,9.215c3.729-3.913,14.344-15.103,29.034-31.019c13.139,17.168,27.622,34.461,43.366,51.182
	c5.99,0.448,12.061,0.688,18.189,0.688c6.14,0,12.198-0.24,18.189-0.688c15.745-16.72,30.215-34.014,43.366-51.182
	c14.688,15.917,25.293,27.105,29.034,31.019c5.13-2.766,10.144-5.829,14.999-9.215l-1.113-1.17
	c-0.356-0.356-13.151-13.725-32.442-34.657c19.21-26.348,35.264-51.95,48.083-74.235c16.709,18.717,31.925,35.195,39.178,41.783
	l1.893,1.721c2.64-5.245,5.141-10.753,7.505-16.513c-7.998-7.746-23.226-24.386-39.672-42.873c0.436-0.792,0.872-1.606,1.308-2.387
	c16.846-31.053,28.321-56.609,34.69-71.78l24.581,35.242l0.563-0.39c1.159-7.918,2.158-16.112,2.995-24.604L409.81,260.217z
	 M131.847,359.595c15.205-17.236,30.376-34.794,40.945-47.268c17.443,22.344,36.722,45.512,55.657,67.522
	c-17.466,20.083-34.323,38.857-48.771,54.692C160.938,408.551,144.998,382.868,131.847,359.595z M239.832,506.863
	c-18.2-18.774-34.771-38.477-49.735-58.216c14.597-15.962,31.81-35.092,49.735-55.657c17.925,20.565,35.138,39.695,49.735,55.668
	C274.604,468.384,258.033,488.088,239.832,506.863z M300,434.555c-14.459-15.848-31.317-34.622-48.783-54.704
	c18.934-22.01,38.214-45.18,55.657-67.522c10.569,12.474,25.739,30.043,40.957,47.28C334.679,382.879,318.74,408.551,300,434.555z"
	/>
<g>
</g>
<g>
</g>
<g>
</g>
<g>
</g>
<g>
</g>
<g>
</g>
<g>
</g>
<g>
</g>
<g>
</g>
<g>
</g>
<g>
</g>
<g>
</g>
<g>
</g>
<g>
</g>
<g>
</g>
</svg>
